<?xml version="1.0" standalone="no"?>
<!DOCTYPE svg PUBLIC "-//W3C//DTD SVG 20010904//EN"
 "http://www.w3.org/TR/2001/REC-SVG-20010904/DTD/svg10.dtd">
<svg version="1.0" xmlns="http://www.w3.org/2000/svg"
 width="1040.000000pt" height="1040.000000pt" viewBox="0 0 1040.000000 1040.000000"
 preserveAspectRatio="xMidYMid meet">
<metadata>
Created by potrace 1.14, written by Peter Selinger 2001-2017
</metadata>
<g transform="translate(0.000000,1040.000000) scale(0.100000,-0.100000)"
fill="#000000" stroke="none">
<path d="M1839 10380 c-20 -10 -45 -32 -55 -47 -19 -27 -19 -134 -22 -4963 -2
-4684 -1 -4937 15 -4970 10 -19 33 -45 52 -57 l34 -23 3337 0 3337 0 34 23
c19 12 42 38 52 57 16 33 17 286 15 4970 -3 4832 -3 4936 -22 4963 -10 16 -36
37 -57 48 -38 19 -90 19 -3361 19 -3247 -1 -3324 -1 -3359 -20z m3689 -3292
c155 -486 299 -934 319 -995 l36 -113 1033 0 c569 0 1034 -3 1034 -7 -1 -5
-376 -285 -836 -622 -459 -338 -833 -620 -830 -626 2 -6 90 -281 196 -611 106
-329 248 -772 316 -984 67 -211 121 -386 119 -388 -2 -2 -379 274 -839 612
l-836 616 -836 -616 c-459 -339 -837 -614 -839 -612 -3 2 569 1799 630 1979 4
12 -208 173 -829 630 -460 338 -835 617 -836 622 0 4 465 7 1034 7 l1034 0 11
33 c10 32 314 985 518 1620 59 185 110 337 113 337 3 0 132 -397 288 -882z"/>
</g>
</svg>
