<?xml version="1.0" standalone="no"?>
<!DOCTYPE svg PUBLIC "-//W3C//DTD SVG 20010904//EN"
 "http://www.w3.org/TR/2001/REC-SVG-20010904/DTD/svg10.dtd">
<svg version="1.0" xmlns="http://www.w3.org/2000/svg"
 width="700.000000pt" height="700.000000pt" viewBox="0 0 700.000000 700.000000"
 preserveAspectRatio="xMidYMid meet">
<metadata>
Created by potrace 1.14, written by Peter Selinger 2001-2017
</metadata>
<g transform="translate(0.000000,700.000000) scale(0.100000,-0.100000)"
fill="#000000" stroke="none">
<path d="M539 6601 l-24 -19 -3 -2743 -2 -2743 26 -38 c15 -20 33 -43 42 -50
12 -10 242 -14 1098 -18 l1082 -5 26 -24 25 -23 3 -257 3 -257 38 -46 c37 -46
39 -47 110 -53 40 -3 857 -5 1817 -3 1326 2 1750 6 1766 15 11 6 32 29 47 50
l27 39 0 2738 c0 1766 -3 2744 -10 2756 -5 10 -24 23 -41 29 -23 8 -357 11
-1140 11 l-1108 0 -3 311 -3 311 -24 19 c-23 19 -67 19 -1876 19 -1809 0
-1853 0 -1876 -19z m5931 -3436 l0 -2635 -1750 0 -1750 0 0 2635 0 2635 1750
0 1750 0 0 -2635z"/>
<path d="M4549 4162 l-166 -517 -544 -5 -545 -5 433 -319 c239 -176 436 -323
439 -328 3 -4 -70 -240 -161 -524 -91 -284 -165 -518 -163 -519 2 -2 198 140
436 316 238 175 436 319 440 319 4 0 203 -144 442 -320 238 -176 435 -318 436
-317 2 1 -71 232 -161 512 -91 281 -164 517 -164 525 0 8 196 159 436 335
l436 320 -544 3 -544 2 -165 516 c-90 284 -167 517 -170 519 -4 2 -81 -229
-171 -513z"/>
</g>
</svg>
